<?xml version="1.0" standalone="no"?>
<!DOCTYPE svg PUBLIC "-//W3C//DTD SVG 20010904//EN"
 "http://www.w3.org/TR/2001/REC-SVG-20010904/DTD/svg10.dtd">
<svg version="1.0" xmlns="http://www.w3.org/2000/svg"
 width="200.000000pt" height="200.000000pt" viewBox="0 0 200.000000 200.000000"
 preserveAspectRatio="xMidYMid meet">

<g transform="translate(0.000000,200.000000) scale(0.100000,-0.100000)"
fill="#000000" stroke="none">
<path d="M905 1993 c-232 -29 -429 -120 -588 -272 -96 -91 -157 -172 -207
-271 -144 -286 -144 -614 0 -900 50 -99 112 -180 208 -272 130 -124 264 -198
441 -245 134 -36 353 -38 484 -5 196 49 357 142 492 284 125 130 200 259 244
416 l20 72 -160 1 c-87 1 -169 2 -181 2 -18 1 -30 -15 -64 -84 -171 -339 -582
-463 -914 -276 -82 46 -199 168 -243 254 -52 100 -67 153 -74 264 -21 341 213
623 563 679 67 11 189 6 246 -10 20 -6 31 -4 43 10 9 9 15 21 14 26 -1 5 1 16
4 24 11 29 47 157 47 170 0 8 7 21 16 31 18 20 10 43 -13 35 -8 -4 -11 -1 -7
5 3 6 17 8 33 4 50 -12 7 12 -49 28 -102 29 -259 42 -355 30z"/>
</g>
</svg>
